<svg width="464" height="291" viewBox="0 0 464 291" fill="none" xmlns="http://www.w3.org/2000/svg">
<path d="M457.67 176.798H7.48047" stroke="#263238" stroke-linecap="round" stroke-linejoin="round"/>
<path d="M457.67 182.474H7.48047" stroke="#263238" stroke-linecap="round" stroke-linejoin="round"/>
<path d="M372.767 188.949C376.219 188.949 379.017 182.142 379.017 173.745C379.017 165.349 376.219 158.542 372.767 158.542C369.316 158.542 366.518 165.349 366.518 173.745C366.518 182.142 369.316 188.949 372.767 188.949Z" fill="#0866FF" stroke="#263238" stroke-miterlimit="10"/>
<path d="M392.188 164.369C390.236 170.044 386.483 174.061 383.803 173.273C381.124 172.485 380.539 167.219 382.491 161.519C384.442 155.818 388.203 151.827 390.882 152.615C393.562 153.403 394.14 158.669 392.188 164.369Z" fill="#0866FF" stroke="#263238" stroke-miterlimit="10"/>
<path d="M346.32 198.768C339.955 197.765 335.174 194.871 335.643 192.304C336.112 189.738 341.655 188.464 348.013 189.467C354.372 190.469 359.159 193.357 358.69 195.924C358.221 198.49 352.678 199.764 346.32 198.768Z" fill="#0866FF" stroke="#263238" stroke-miterlimit="10"/>
<path d="M398.079 184.706C392.761 189.593 386.518 191.718 384.049 189.441C381.581 187.165 383.954 181.364 389.272 176.477C394.59 171.59 400.867 169.471 403.267 171.754C405.668 174.036 403.39 179.819 398.079 184.706Z" fill="#0866FF" stroke="#263238" stroke-miterlimit="10"/>
<path d="M361.451 171.298C366.592 178.235 368.122 185.506 364.851 187.58C361.58 189.655 354.8 185.739 349.659 178.821C344.518 171.904 342.988 164.621 346.259 162.54C349.53 160.459 356.344 164.387 361.451 171.298Z" fill="#0866FF" stroke="#263238" stroke-miterlimit="10"/>
<path d="M373.202 188.198L373.685 234.452" stroke="#263238" stroke-miterlimit="10" stroke-linecap="round"/>
<path d="M372.617 168.096L373.202 188.199" stroke="#263238" stroke-miterlimit="10" stroke-linecap="round"/>
<path d="M372.665 164.817L372.617 166.356" stroke="#263238" stroke-miterlimit="10" stroke-linecap="round"/>
<path d="M364.851 186.597C368.431 193.464 370.529 200.914 371.025 208.528V237.138" stroke="#263238" stroke-miterlimit="10" stroke-linecap="round"/>
<path d="M354.107 171.363C358.402 175.977 362.015 181.101 364.852 186.598" stroke="#263238" stroke-miterlimit="10" stroke-linecap="round"/>
<path d="M350.733 168.045C350.733 168.045 351.413 168.594 352.44 169.647" stroke="#263238" stroke-miterlimit="10" stroke-linecap="round"/>
<path d="M384.436 188.741C380.051 194.442 376.634 200.733 374.304 207.394" stroke="#263238" stroke-miterlimit="10" stroke-linecap="round"/>
<path d="M391.631 181.08C388.981 183.421 386.572 185.986 384.437 188.742" stroke="#263238" stroke-miterlimit="10" stroke-linecap="round"/>
<path d="M399.309 175.649C397.367 176.674 395.544 177.88 393.868 179.25" stroke="#263238" stroke-miterlimit="10" stroke-linecap="round"/>
<path d="M384.171 171.86C380.71 181.95 376.065 196.901 373.896 209.859" stroke="#263238" stroke-miterlimit="10" stroke-linecap="round"/>
<path d="M386.265 165.864C385.646 167.567 384.905 169.591 384.15 171.861" stroke="#263238" stroke-miterlimit="10" stroke-linecap="round"/>
<path d="M388.449 160.062C388.449 160.062 387.844 161.613 386.864 164.261" stroke="#263238" stroke-miterlimit="10" stroke-linecap="round"/>
<path d="M358.384 194.523C362.709 196.043 368.625 200.287 370.679 205.874" stroke="#263238" stroke-miterlimit="10" stroke-linecap="round"/>
<path d="M350.372 193.017C353.109 193.142 355.81 193.65 358.383 194.524" stroke="#263238" stroke-miterlimit="10" stroke-linecap="round"/>
<path d="M345.198 193.136C345.198 193.136 345.967 193.035 347.238 192.984" stroke="#263238" stroke-miterlimit="10" stroke-linecap="round"/>
<path d="M358.799 220.995C352.951 223.517 347.239 223.668 346.062 221.31C344.886 218.952 348.646 215.004 354.495 212.482C360.343 209.96 366.055 209.815 367.239 212.173C368.422 214.531 364.648 218.466 358.799 220.995Z" fill="#0866FF" stroke="#263238" stroke-miterlimit="10"/>
<path d="M358.615 214.129C360.935 212.798 363.456 211.797 366.096 211.159C366.703 210.814 367.404 210.638 368.116 210.65C368.828 210.662 369.521 210.863 370.115 211.228C370.91 211.713 370.645 215.383 370.645 215.383V234.452" stroke="#263238" stroke-miterlimit="10" stroke-linecap="round"/>
<path d="M354.426 216.96C354.426 216.96 354.997 216.468 356.017 215.762" stroke="#263238" stroke-miterlimit="10" stroke-linecap="round"/>
<path d="M400.772 198.768C407.137 197.765 411.918 194.871 411.449 192.304C410.979 189.738 405.437 188.464 399.079 189.467C392.72 190.469 387.933 193.357 388.402 195.924C388.871 198.49 394.427 199.764 400.772 198.768Z" fill="#0866FF" stroke="#263238" stroke-miterlimit="10"/>
<path d="M388.856 194.454C388.082 194.719 387.326 195.026 386.592 195.375C384.013 196.631 381.857 198.521 380.36 200.838C378.863 203.155 378.083 205.809 378.105 208.51V233.733" stroke="#263238" stroke-miterlimit="10" stroke-linecap="round"/>
<path d="M397.384 192.984C394.476 193.059 391.599 193.554 388.856 194.454" stroke="#263238" stroke-miterlimit="10" stroke-linecap="round"/>
<path d="M401.906 193.136C401.906 193.136 401.403 193.067 400.546 193.017" stroke="#263238" stroke-miterlimit="10" stroke-linecap="round"/>
<path d="M407.056 217.373C408.459 215.116 405.064 210.864 399.474 207.876C393.884 204.888 388.215 204.295 386.812 206.552C385.409 208.809 388.803 213.061 394.393 216.049C399.984 219.037 405.653 219.629 407.056 217.373Z" fill="#0866FF" stroke="#263238" stroke-miterlimit="10"/>
<path d="M395.745 209.589C393.447 207.932 390.884 206.619 388.149 205.698C388.149 205.698 381.212 204.639 379.628 208.794" stroke="#263238" stroke-miterlimit="10" stroke-linecap="round"/>
<path d="M399.119 212.356C399.119 212.356 398.772 212.003 398.133 211.448" stroke="#263238" stroke-miterlimit="10" stroke-linecap="round"/>
<path d="M380.682 209.026C380.682 209.026 372.521 207.557 372.521 212.696C372.521 217.836 378.322 221.985 380.682 227.83C383.042 233.676 387.537 233.941 389.91 228.076C392.284 222.212 388.856 211.479 380.682 209.026Z" fill="#0866FF" stroke="#263238" stroke-miterlimit="10"/>
<path d="M375.146 209.273C375.146 209.273 382.267 211.96 384.375 220.517Z" fill="#0866FF"/>
<path d="M375.146 209.273C375.146 209.273 382.267 211.96 384.375 220.517" stroke="#263238" stroke-miterlimit="10"/>
<path d="M375.678 220.517V234.453" stroke="#263238" stroke-miterlimit="10" stroke-linecap="round"/>
<path d="M388.769 261.586C390.721 255.815 391.712 249.801 391.706 243.753C391.715 240.089 391.319 236.433 390.523 232.844H357.201C356.405 236.433 356.009 240.089 356.018 243.753C356.019 249.802 357.016 255.816 358.976 261.586H388.769Z" fill="#263238"/>
<path d="M356.385 237.965C356.289 238.804 356.221 239.655 356.167 240.487H391.618C391.563 239.63 391.495 238.778 391.4 237.965H356.385Z" fill="#7A7A7A"/>
<path d="M391.243 250.974C391.352 250.129 391.447 249.277 391.522 248.451H356.262C356.337 249.302 356.432 250.154 356.541 250.974H391.243Z" fill="#7A7A7A"/>
<path d="M360.363 243.892C360.378 244.158 360.307 244.422 360.158 244.649C360.01 244.877 359.791 245.058 359.531 245.17C359.27 245.281 358.98 245.318 358.697 245.274C358.414 245.231 358.151 245.11 357.943 244.927C357.735 244.744 357.59 244.508 357.529 244.248C357.467 243.988 357.491 243.717 357.597 243.47C357.703 243.223 357.886 243.011 358.124 242.861C358.361 242.712 358.641 242.631 358.928 242.631C359.298 242.624 359.656 242.753 359.924 242.989C360.193 243.225 360.35 243.549 360.363 243.892Z" fill="#8C8C8C"/>
<path d="M367.537 243.892C367.552 244.158 367.48 244.422 367.332 244.649C367.184 244.877 366.965 245.058 366.705 245.17C366.444 245.281 366.154 245.318 365.871 245.274C365.588 245.231 365.325 245.11 365.117 244.927C364.908 244.744 364.764 244.508 364.703 244.248C364.641 243.988 364.665 243.717 364.771 243.47C364.877 243.223 365.06 243.011 365.297 242.861C365.535 242.712 365.815 242.631 366.102 242.631C366.472 242.624 366.83 242.753 367.098 242.989C367.367 243.225 367.524 243.549 367.537 243.892Z" fill="#8C8C8C"/>
<path d="M374.705 243.892C374.72 244.158 374.648 244.422 374.5 244.649C374.352 244.877 374.133 245.058 373.873 245.17C373.612 245.281 373.322 245.318 373.039 245.274C372.756 245.231 372.493 245.11 372.285 244.927C372.077 244.744 371.932 244.508 371.87 244.248C371.809 243.988 371.833 243.717 371.939 243.47C372.045 243.223 372.228 243.011 372.465 242.861C372.703 242.712 372.983 242.631 373.27 242.631C373.64 242.624 373.998 242.753 374.266 242.989C374.535 243.225 374.692 243.549 374.705 243.892Z" fill="#8C8C8C"/>
<path d="M381.886 243.892C381.901 244.158 381.83 244.422 381.682 244.649C381.533 244.877 381.315 245.058 381.054 245.17C380.794 245.281 380.503 245.318 380.22 245.274C379.937 245.231 379.675 245.11 379.466 244.927C379.258 244.744 379.114 244.508 379.052 244.248C378.99 243.988 379.014 243.717 379.12 243.47C379.226 243.223 379.41 243.011 379.647 242.861C379.884 242.712 380.165 242.631 380.451 242.631C380.821 242.624 381.179 242.753 381.448 242.989C381.716 243.225 381.874 243.549 381.886 243.892Z" fill="#8C8C8C"/>
<path d="M389.06 243.892C389.075 244.158 389.004 244.422 388.856 244.649C388.707 244.877 388.489 245.058 388.228 245.17C387.968 245.281 387.677 245.318 387.394 245.274C387.111 245.231 386.848 245.11 386.64 244.927C386.432 244.744 386.288 244.508 386.226 244.248C386.164 243.988 386.188 243.717 386.294 243.47C386.4 243.223 386.584 243.011 386.821 242.861C387.058 242.712 387.338 242.631 387.625 242.631C387.995 242.624 388.353 242.753 388.622 242.989C388.89 243.225 389.048 243.549 389.06 243.892Z" fill="#8C8C8C"/>
<path d="M266.359 22.2236V139.512H312.636V22.2236H266.359ZM310.304 24.8279V42.1375H291.059V24.8279H310.304ZM288.168 24.8279V42.1375H268.692V24.8279H288.168ZM268.692 44.8868H288.168V62.0639H268.692V44.8868ZM310.304 136.902H268.692V65.0151H310.304V136.902ZM291.059 62.0639V44.8868H310.304V62.0639H291.059Z" stroke="#263238" stroke-linecap="round" stroke-linejoin="round"/>
<path d="M312.453 22.2236V139.512H358.73V22.2236H312.453ZM356.398 24.8279V42.1375H337.139V24.8279H356.398ZM334.262 24.8279V42.1375H314.786V24.8279H334.262ZM314.786 44.8868H334.262V62.0639H314.786V44.8868ZM356.398 136.902H314.786V65.0151H356.398V136.902ZM337.139 62.0639V44.8868H356.398V62.0639H337.139Z" stroke="#263238" stroke-linecap="round" stroke-linejoin="round"/>
<path d="M299.946 84.5068L288.331 96.4123" stroke="#263238" stroke-linecap="round" stroke-linejoin="round"/>
<path d="M302.83 81.5557L300.98 83.4474" stroke="#263238" stroke-linecap="round" stroke-linejoin="round"/>
<path d="M275.696 105.095L273.315 107.396" stroke="#263238" stroke-linecap="round" stroke-linejoin="round"/>
<path d="M291.127 90.1689L277.479 103.373" stroke="#263238" stroke-linecap="round" stroke-linejoin="round"/>
<path d="M346.754 88.1445L335.139 100.05" stroke="#263238" stroke-linecap="round" stroke-linejoin="round"/>
<path d="M349.638 85.1875L347.788 87.0793" stroke="#263238" stroke-linecap="round" stroke-linejoin="round"/>
<path d="M322.511 108.728L320.131 111.029" stroke="#263238" stroke-linecap="round" stroke-linejoin="round"/>
<path d="M337.935 93.8018L324.286 107.006" stroke="#263238" stroke-linecap="round" stroke-linejoin="round"/>
<path d="M364.912 22.2236V139.512H411.155V22.2236H364.912ZM408.857 24.8279V42.1375H389.598V24.8279H408.857ZM386.721 24.8279V42.1375H367.224V24.8279H386.721ZM367.224 44.8868H386.701V62.0639H367.224V44.8868ZM408.836 136.902H367.224V65.0151H408.836V136.902ZM389.598 62.0639V44.8868H408.857V62.0639H389.598Z" stroke="#263238" stroke-linecap="round" stroke-linejoin="round"/>
<path d="M411.005 22.2236V139.512H457.248V22.2236H411.005ZM454.949 24.8279V42.1375H435.69V24.8279H454.949ZM432.814 24.8279V42.1375H413.337V24.8279H432.814ZM413.337 44.8868H432.814V62.0639H413.337V44.8868ZM454.949 136.902H413.337V65.0151H454.949V136.902ZM435.69 62.0639V44.8868H454.949V62.0639H435.69Z" stroke="#263238" stroke-linecap="round" stroke-linejoin="round"/>
<path d="M398.499 84.5068L386.884 96.4123" stroke="#263238" stroke-linecap="round" stroke-linejoin="round"/>
<path d="M401.382 81.5557L399.532 83.4474" stroke="#263238" stroke-linecap="round" stroke-linejoin="round"/>
<path d="M374.248 105.095L371.868 107.396" stroke="#263238" stroke-linecap="round" stroke-linejoin="round"/>
<path d="M389.678 90.1689L376.029 103.373" stroke="#263238" stroke-linecap="round" stroke-linejoin="round"/>
<path d="M445.307 88.1445L433.691 100.05" stroke="#263238" stroke-linecap="round" stroke-linejoin="round"/>
<path d="M448.19 85.1875L446.34 87.0793" stroke="#263238" stroke-linecap="round" stroke-linejoin="round"/>
<path d="M421.063 108.728L418.683 111.029" stroke="#263238" stroke-linecap="round" stroke-linejoin="round"/>
<path d="M436.486 93.8018L422.838 107.006" stroke="#263238" stroke-linecap="round" stroke-linejoin="round"/>
<path d="M232.544 81.9337C241.654 73.487 241.654 59.7923 232.544 51.3456C223.435 42.899 208.666 42.8989 199.557 51.3456C190.448 59.7923 190.448 73.487 199.557 81.9337C208.666 90.3803 223.435 90.3803 232.544 81.9337Z" fill="#263238" stroke="#263238" stroke-linejoin="round"/>
<path d="M232.422 79.3122C239.979 70.9259 238.773 58.447 229.729 51.4399C220.684 44.4327 207.227 45.5508 199.67 53.9372C192.113 62.3236 193.319 74.8025 202.363 81.8096C211.407 88.8167 224.865 87.6986 232.422 79.3122Z" fill="white" stroke="#263238" stroke-linejoin="round"/>
<path d="M218.035 66.6353C218.035 66.2711 217.918 65.9151 217.7 65.6123C217.482 65.3095 217.172 65.0735 216.809 64.9341C216.446 64.7947 216.047 64.7583 215.662 64.8293C215.277 64.9004 214.923 65.0757 214.645 65.3333C214.367 65.5908 214.178 65.9189 214.102 66.276C214.025 66.6332 214.064 67.0034 214.215 67.3399C214.365 67.6763 214.619 67.9639 214.946 68.1662C215.273 68.3686 215.656 68.4766 216.049 68.4766C216.576 68.4766 217.081 68.2826 217.453 67.9372C217.826 67.5919 218.035 67.1236 218.035 66.6353Z" fill="#263238" stroke="#263238" stroke-linejoin="round"/>
<path d="M217.675 68.0029L220.783 71.6414" stroke="#263238" stroke-linejoin="round"/>
<path d="M217.675 65.279L226.502 53.6006" stroke="#263238" stroke-linejoin="round"/>
<path d="M423.817 258.687H0" stroke="#263238" stroke-linejoin="round"/>
<path d="M445.43 258.687H429.395" stroke="#263238" stroke-linejoin="round"/>
<path d="M183.83 261.734H180.838L180.484 209.906H184.184L183.83 261.734Z" fill="white" stroke="#263238" stroke-linejoin="round"/>
<path d="M180.498 212.101H184.17L184.184 209.906H180.484L180.498 212.101Z" fill="#263238" stroke="#263238" stroke-miterlimit="10"/>
<path d="M188.312 261.734H185.313L184.959 209.906H188.665L188.312 261.734Z" fill="#263238" stroke="#263238" stroke-miterlimit="10"/>
<path d="M240.886 261.734H237.894L237.54 209.906H241.239L240.886 261.734Z" fill="white" stroke="#263238" stroke-linejoin="round"/>
<path d="M237.554 212.101H241.226L241.239 209.906H237.54L237.554 212.101Z" fill="#263238" stroke="#263238" stroke-miterlimit="10"/>
<path d="M236.017 261.734H233.025L232.671 209.906H236.37L236.017 261.734Z" fill="#263238" stroke="#263238" stroke-miterlimit="10"/>
<path d="M242.702 206.293H179.899L187.87 194.924H234.725L242.702 206.293Z" fill="white" stroke="#263238" stroke-linejoin="round"/>
<path d="M242.783 206.293H179.899V210.14H242.783V206.293Z" fill="white" stroke="#263238" stroke-linejoin="round"/>
<path d="M192.126 152.668H230.277C231.404 152.668 232.485 153.083 233.282 153.822C234.079 154.561 234.527 155.564 234.527 156.609V194.923H187.876V156.622C187.874 156.103 187.983 155.589 188.196 155.11C188.408 154.63 188.721 154.194 189.116 153.827C189.511 153.459 189.98 153.168 190.497 152.969C191.013 152.77 191.567 152.668 192.126 152.668Z" fill="white" stroke="#263238" stroke-linejoin="round"/>
<path d="M266.51 261.733H263.518L263.164 209.905H266.864L266.51 261.733Z" fill="white" stroke="#263238" stroke-linejoin="round"/>
<path d="M263.178 212.1H266.85L266.864 209.905H263.164L263.178 212.1Z" fill="#263238" stroke="#263238" stroke-miterlimit="10"/>
<path d="M270.99 261.733H267.991L267.638 209.905H271.337L270.99 261.733Z" fill="#263238" stroke="#263238" stroke-miterlimit="10"/>
<path d="M323.565 261.733H320.572L320.219 209.905H323.918L323.565 261.733Z" fill="white" stroke="#263238" stroke-linejoin="round"/>
<path d="M320.232 212.1H323.905L323.918 209.905H320.219L320.232 212.1Z" fill="#263238" stroke="#263238" stroke-miterlimit="10"/>
<path d="M318.696 261.733H315.704L315.351 209.905H319.05L318.696 261.733Z" fill="#263238" stroke="#263238" stroke-miterlimit="10"/>
<path d="M325.38 206.292H262.578L270.555 194.923H317.403L325.38 206.292Z" fill="white" stroke="#263238" stroke-linejoin="round"/>
<path d="M325.462 206.292H262.578V210.139H325.462V206.292Z" fill="white" stroke="#263238" stroke-linejoin="round"/>
<path d="M274.806 152.667H312.956C314.084 152.667 315.165 153.082 315.962 153.821C316.759 154.56 317.207 155.563 317.207 156.608V194.922H270.556V156.621C270.554 156.102 270.663 155.588 270.875 155.109C271.088 154.629 271.401 154.193 271.796 153.826C272.191 153.458 272.66 153.167 273.176 152.968C273.693 152.769 274.247 152.667 274.806 152.667Z" fill="white" stroke="#263238" stroke-linejoin="round"/>
<path d="M278.376 251.656C277.29 253.226 276.3 254.851 275.411 256.524C274.813 257.899 270.651 261.481 269.665 263.227C268.679 264.974 269.957 266.443 274.616 266.904C279.274 267.364 280.954 264.419 282.042 263.12C283.13 261.821 283.137 259.967 284.422 259.173C285.707 258.378 288.182 256.146 288.38 253.939C288.515 252.671 288.416 251.392 288.087 250.155L278.376 251.656Z" fill="white" stroke="#263238" stroke-miterlimit="10"/>
<path d="M288.38 253.952C288.472 252.97 288.436 251.981 288.271 251.007C288.103 251.706 287.976 252.413 287.89 253.126C287.489 256.342 283.334 257.54 282.45 259.368C281.566 261.197 280.267 264.88 276.602 265.617C273.881 266.16 270.821 264.754 269.393 263.978C269.135 265.384 270.651 266.5 274.623 266.904C279.281 267.358 280.961 264.419 282.049 263.12C283.137 261.821 283.144 259.967 284.429 259.173C285.714 258.378 288.183 256.159 288.38 253.952Z" fill="white" stroke="#263238" stroke-miterlimit="10"/>
<path d="M311.392 251.656C312.481 253.225 313.473 254.851 314.364 256.524C314.955 257.899 319.124 261.481 320.11 263.227C321.096 264.974 319.811 266.443 315.153 266.904C310.494 267.364 308.814 264.419 307.726 263.12C306.638 261.821 306.638 259.967 305.353 259.173C304.068 258.378 301.586 256.146 301.388 253.939C301.258 252.671 301.359 251.392 301.688 250.155L311.392 251.656Z" fill="white" stroke="#263238" stroke-miterlimit="10"/>
<path d="M301.389 253.952C301.3 252.97 301.337 251.981 301.498 251.007C301.672 251.705 301.802 252.413 301.886 253.126C302.28 256.342 306.442 257.54 307.326 259.368C308.21 261.197 309.502 264.88 313.168 265.617C315.888 266.16 318.955 264.754 320.383 263.978C320.634 265.384 319.118 266.5 315.146 266.904C310.495 267.358 308.808 264.419 307.72 263.12C306.632 261.821 306.632 259.967 305.347 259.173C304.062 258.378 301.586 256.159 301.389 253.952Z" fill="white" stroke="#263238" stroke-miterlimit="10"/>
<path d="M326.482 205.642C326.482 202.521 317.199 190.634 317.199 190.634L313.833 183.275L296.696 184.77H292.759L275.621 183.275L272.255 190.634C272.255 190.634 262.973 202.521 262.973 205.642C262.973 208.764 263.374 209.76 263.374 209.76L278.335 247.595L277.124 250.212L277.662 252.211C277.662 252.211 279.545 253.705 283.177 253.705C285.304 253.723 287.364 253.013 288.964 251.713C288.964 251.713 289.365 247.595 289.365 246.094C289.365 244.593 286.407 237.361 286.407 235.866C286.407 234.372 283.578 207.011 283.578 207.011L294.071 200.131H295.384L305.897 207.023C305.897 207.023 303.068 234.353 303.068 235.847C303.068 237.342 300.11 244.581 300.11 246.075C300.11 247.57 300.511 251.694 300.511 251.694C302.111 252.994 304.171 253.704 306.298 253.686C309.93 253.686 311.813 252.192 311.813 252.192L312.357 250.193L311.14 247.576L326.101 209.741C326.101 209.741 326.482 208.757 326.482 205.642Z" fill="#263238" stroke="#263238" stroke-miterlimit="10"/>
<path d="M296.5 198.498C296.5 198.498 301.879 191.013 308.476 188.888" stroke="#7D7D7D" stroke-miterlimit="10"/>
<path d="M302.267 193.755C302.267 193.755 307.245 190.136 312.086 189.638" stroke="#7D7D7D" stroke-miterlimit="10"/>
<path d="M285.312 191.386C285.312 191.386 289.753 194.381 291.766 197.496" stroke="#7D7D7D" stroke-miterlimit="10"/>
<path d="M284.939 135.989L268.522 141.727L272.018 169.549C272.018 169.549 273.228 183.522 274.439 184.052C275.649 184.582 291.392 186.921 294.351 186.795C297.309 186.669 313.052 186.297 314.806 183.674C316.561 181.051 321.396 142.875 321.26 141.879C321.124 140.882 300.675 134.268 300.675 134.268L284.939 135.989Z" fill="#0866FF" stroke="#263238" stroke-linejoin="round"/>
<path d="M288.407 146.343L293.384 151.835L298.9 146.469C298.9 146.469 302.531 137.483 302.395 136.486C302.259 135.49 299.709 133.743 299.709 133.743L290.419 133.491L283.966 136.241L288.407 146.343Z" fill="white" stroke="#263238" stroke-linejoin="round"/>
<path d="M287.061 132.029L283.579 135.617L288.428 146.337L293.134 141.973L298.921 146.463C298.921 146.463 301.743 140.353 302.416 138.726C302.855 137.477 303.084 136.173 303.096 134.86L299.438 131.398L287.061 132.029Z" fill="white" stroke="#263238" stroke-linejoin="round"/>
<path d="M285.713 130.376L286.386 134.494L293.112 141.979L300.647 134.242L301.048 129.626L292.711 133.372L285.713 130.376Z" fill="white" stroke="#263238" stroke-linejoin="round"/>
<path d="M281.811 118.024C281.811 118.024 280.451 118.27 280.6 120.395C280.75 122.52 284.096 125.011 284.096 125.011L283.021 117.399L281.811 118.024Z" fill="white" stroke="#263238" stroke-linejoin="round"/>
<path d="M282.755 116.402C282.755 116.402 283.966 128.875 284.795 130.123C285.625 131.372 290.447 136.24 292.602 136.486C293.745 136.618 301.212 131.87 301.749 129.877C302.286 127.885 302.966 124.013 302.966 124.013C302.966 124.013 304.578 124.133 305.516 120.639C306.455 117.146 304.979 116.522 304.306 116.522H303.231C303.231 116.522 302.966 111.408 302.551 110.411C302.137 109.415 284.251 111.786 282.64 113.028C281.028 114.27 282.755 116.402 282.755 116.402Z" fill="white" stroke="#263238" stroke-linejoin="round"/>
<path d="M297.757 123.762C297.757 124.348 297.485 124.821 297.152 124.821C296.819 124.821 296.547 124.348 296.547 123.762C296.547 123.175 296.819 122.702 297.152 122.702C297.485 122.702 297.757 123.2 297.757 123.762Z" fill="#263238"/>
<path d="M288.604 123.452C288.604 124.033 288.332 124.512 287.999 124.512C287.666 124.512 287.394 124.033 287.394 123.452C287.394 122.872 287.666 122.387 287.999 122.387C288.332 122.387 288.604 122.866 288.604 123.452Z" fill="#263238"/>
<path d="M291.229 127.129C291.229 127.129 291.093 128.251 291.909 128.63C292.183 128.735 292.481 128.778 292.776 128.755C293.072 128.731 293.357 128.642 293.608 128.495C293.859 128.348 294.068 128.147 294.217 127.909C294.366 127.671 294.452 127.404 294.466 127.129" stroke="#263238" stroke-linejoin="round"/>
<path d="M291.63 131H293.514" stroke="#263238" stroke-linejoin="round"/>
<path d="M285.177 120.893H289.753" stroke="#263238" stroke-width="2" stroke-linecap="round" stroke-linejoin="round"/>
<path d="M294.459 120.52C294.459 120.52 297.417 118.893 299.036 120.52" stroke="#263238" stroke-width="2" stroke-linecap="round" stroke-linejoin="round"/>
<path d="M285.979 124.638L288.27 125.136" stroke="#263238" stroke-linejoin="round"/>
<path d="M299.3 124.385L296.743 125.507" stroke="#263238" stroke-linejoin="round"/>
<path d="M303.341 105.67C302.436 104.093 293.65 100.682 288.38 103.425C288.38 103.425 281.518 105.67 279.227 110.784C277.438 114.788 278.132 116.724 281.158 117.197L283.402 123.137L283.13 121.39L282.804 117.316C283.239 117.316 283.701 117.316 284.205 117.272C289.726 116.9 294.568 115.778 296.989 114.75C298.344 114.225 299.577 113.463 300.621 112.505C300.55 113.711 300.55 114.919 300.621 116.125C300.757 117.121 302.239 118.243 302.239 118.243L302.368 122.115L303.178 121.989L303.715 117.625L304.395 115.879C304.891 116.516 306.082 110.443 303.341 105.67Z" fill="#263238" stroke="#263238" stroke-linejoin="round"/>
<path d="M309.127 152.586L314.642 158.949" stroke="#263238" stroke-linejoin="round"/>
<path d="M313.16 150.838L315.316 165.556L294.595 168.425L294.731 176.162L298.09 176.414C299.66 177.478 301.534 178.086 303.476 178.161C306.434 178.161 321.64 176.414 324.326 175.79C327.012 175.166 328.638 174.529 328.903 172.171C329.168 169.812 323.388 144.847 322.987 143.227C322.585 141.606 315.989 139.733 315.989 139.733" fill="#0866FF"/>
<path d="M313.16 150.838L315.316 165.556L294.595 168.425L294.731 176.162L298.09 176.414C299.66 177.478 301.534 178.086 303.476 178.161C306.434 178.161 321.64 176.414 324.326 175.79C327.012 175.166 328.638 174.529 328.903 172.171C329.168 169.812 323.388 144.847 322.987 143.227C322.585 141.606 315.989 139.733 315.989 139.733" stroke="#263238" stroke-linejoin="round"/>
<path d="M321.505 166.932C319.22 165.431 315.316 165.557 315.316 165.557C315.316 165.557 318.676 164.189 321.369 165.059" stroke="#263238" stroke-linejoin="round"/>
<path d="M298.091 168.552L298.363 175.791" stroke="#263238" stroke-linejoin="round"/>
<path d="M294.595 168.425L287.87 168.053L279.661 164.308L278.179 165.058C278.179 165.058 275.085 170.424 275.758 170.796C276.431 171.168 277.37 172.297 277.907 172.297C278.444 172.297 279.661 171.421 279.661 171.421C279.661 171.421 282.885 174.416 284.905 174.416C286.158 174.404 287.396 174.149 288.536 173.665L294.86 174.416L294.595 168.425Z" fill="white" stroke="#263238" stroke-linejoin="round"/>
<path d="M279.661 171.42L277.906 170.052L277.505 170.676" stroke="#263238" stroke-linejoin="round"/>
<path d="M291.229 167.802H289.346V174.164H291.229V167.802Z" fill="#263238" stroke="#263238" stroke-miterlimit="10"/>
<path d="M290.29 169.302C291.33 169.302 292.174 168.856 292.174 168.306C292.174 167.756 291.33 167.31 290.29 167.31C289.25 167.31 288.406 167.756 288.406 168.306C288.406 168.856 289.25 169.302 290.29 169.302Z" fill="white" stroke="#263238" stroke-linejoin="round"/>
<path d="M268.488 141.727C268.488 141.727 261.763 176.661 261.763 178.786C261.763 180.911 271.583 190.042 271.583 190.042L276.023 186.05L273.065 174.069L268.488 141.727Z" fill="#0866FF" stroke="#263238" stroke-linejoin="round"/>
<path d="M265.802 175.412C265.802 175.412 269.698 173.419 272.527 173.791" stroke="#263238" stroke-linejoin="round"/>
<path d="M263.919 175.167C263.919 175.167 267.278 172.645 269.835 172.645" stroke="#263238" stroke-linejoin="round"/>
<path d="M269.57 188.151C269.57 188.151 269.434 184.405 275.486 184.279" stroke="#263238" stroke-linejoin="round"/>
<path d="M276.023 186.019L281.905 187.822C282.434 188.727 282.889 189.667 283.265 190.634C283.748 191.99 284.482 193.34 284.482 193.68C284.482 194.021 284.36 194.468 283.87 194.468C283.381 194.468 281.32 192.778 281.32 192.778L280.11 192.211C280.11 192.211 281.688 194.241 282.048 194.355C282.677 194.657 283.285 194.994 283.87 195.364C283.87 195.364 287.033 194.014 287.033 195.143C287.033 196.272 282.415 198.744 282.415 198.744C282.415 198.744 278.525 198.069 277.798 197.621C277.07 197.174 271.582 190.042 271.582 190.042L276.023 186.019Z" fill="white" stroke="#263238" stroke-linejoin="round"/>
<path d="M158.151 26.7207H47.5352V258.46H158.151V26.7207Z" fill="white" stroke="#263238" stroke-linejoin="round"/>
<path d="M100.79 33.6895H52.3096V82.8624H100.79V33.6895Z" fill="white" stroke="#263238" stroke-linejoin="round"/>
<path d="M95.0163 39.5537H58.0967V76.9978H95.0163V39.5537Z" fill="white" stroke="#263238" stroke-linejoin="round"/>
<path d="M58.0968 39.5539L52.3096 33.6895" stroke="#263238" stroke-linejoin="round"/>
<path d="M58.0968 76.9971L52.3096 82.8615" stroke="#263238" stroke-linejoin="round"/>
<path d="M95.0098 39.5539L100.797 33.6895" stroke="#263238" stroke-linejoin="round"/>
<path d="M95.0098 76.9971L100.797 82.8615" stroke="#263238" stroke-linejoin="round"/>
<path d="M153.166 33.6895H104.686V82.8624H153.166V33.6895Z" fill="white" stroke="#263238" stroke-linejoin="round"/>
<path d="M147.385 39.5537H110.466V76.9978H147.385V39.5537Z" fill="white" stroke="#263238" stroke-linejoin="round"/>
<path d="M110.466 39.5539L104.686 33.6895" stroke="#263238" stroke-linejoin="round"/>
<path d="M110.466 76.9971L104.686 82.8615" stroke="#263238" stroke-linejoin="round"/>
<path d="M147.387 39.5539L153.167 33.6895" stroke="#263238" stroke-linejoin="round"/>
<path d="M147.387 76.9971L153.167 82.8615" stroke="#263238" stroke-linejoin="round"/>
<path d="M100.79 87.9258H52.3096V137.099H100.79V87.9258Z" fill="white" stroke="#263238" stroke-linejoin="round"/>
<path d="M95.0163 93.79H58.0967V131.234H95.0163V93.79Z" fill="white" stroke="#263238" stroke-linejoin="round"/>
<path d="M58.0968 93.7902L52.3096 87.9258" stroke="#263238" stroke-linejoin="round"/>
<path d="M58.0968 131.24L52.3096 137.105" stroke="#263238" stroke-linejoin="round"/>
<path d="M95.0098 93.7902L100.797 87.9258" stroke="#263238" stroke-linejoin="round"/>
<path d="M95.0098 131.24L100.797 137.105" stroke="#263238" stroke-linejoin="round"/>
<path d="M153.166 87.9258H104.686V137.099H153.166V87.9258Z" fill="white" stroke="#263238" stroke-linejoin="round"/>
<path d="M147.385 93.79H110.466V131.234H147.385V93.79Z" fill="white" stroke="#263238" stroke-linejoin="round"/>
<path d="M110.466 93.7902L104.686 87.9258" stroke="#263238" stroke-linejoin="round"/>
<path d="M110.466 131.24L104.686 137.105" stroke="#263238" stroke-linejoin="round"/>
<path d="M147.387 93.7902L153.167 87.9258" stroke="#263238" stroke-linejoin="round"/>
<path d="M147.387 131.24L153.167 137.105" stroke="#263238" stroke-linejoin="round"/>
<path d="M100.79 147.868H52.3096V197.041H100.79V147.868Z" fill="white" stroke="#263238" stroke-linejoin="round"/>
<path d="M95.0163 153.733H58.0967V191.177H95.0163V153.733Z" fill="white" stroke="#263238" stroke-linejoin="round"/>
<path d="M58.0968 153.733L52.3096 147.868" stroke="#263238" stroke-linejoin="round"/>
<path d="M58.0968 191.177L52.3096 197.041" stroke="#263238" stroke-linejoin="round"/>
<path d="M95.0098 153.733L100.797 147.868" stroke="#263238" stroke-linejoin="round"/>
<path d="M95.0098 191.177L100.797 197.041" stroke="#263238" stroke-linejoin="round"/>
<path d="M153.166 147.868H104.686V197.041H153.166V147.868Z" fill="white" stroke="#263238" stroke-linejoin="round"/>
<path d="M147.385 153.733H110.466V191.177H147.385V153.733Z" fill="white" stroke="#263238" stroke-linejoin="round"/>
<path d="M110.466 153.733L104.686 147.868" stroke="#263238" stroke-linejoin="round"/>
<path d="M110.466 191.177L104.686 197.041" stroke="#263238" stroke-linejoin="round"/>
<path d="M147.387 153.733L153.167 147.868" stroke="#263238" stroke-linejoin="round"/>
<path d="M147.387 191.177L153.167 197.041" stroke="#263238" stroke-linejoin="round"/>
<path d="M100.79 202.111H52.3096V251.284H100.79V202.111Z" fill="white" stroke="#263238" stroke-linejoin="round"/>
<path d="M95.0163 207.976H58.0967V245.42H95.0163V207.976Z" fill="white" stroke="#263238" stroke-linejoin="round"/>
<path d="M58.0968 207.976L52.3096 202.111" stroke="#263238" stroke-linejoin="round"/>
<path d="M58.0968 245.42L52.3096 251.284" stroke="#263238" stroke-linejoin="round"/>
<path d="M95.0098 207.976L100.797 202.111" stroke="#263238" stroke-linejoin="round"/>
<path d="M95.0098 245.42L100.797 251.284" stroke="#263238" stroke-linejoin="round"/>
<path d="M153.166 202.111H104.686V251.284H153.166V202.111Z" fill="white" stroke="#263238" stroke-linejoin="round"/>
<path d="M147.385 207.976H110.466V245.42H147.385V207.976Z" fill="white" stroke="#263238" stroke-linejoin="round"/>
<path d="M110.466 207.976L104.686 202.111" stroke="#263238" stroke-linejoin="round"/>
<path d="M110.466 245.42L104.686 251.284" stroke="#263238" stroke-linejoin="round"/>
<path d="M147.387 207.976L153.167 202.111" stroke="#263238" stroke-linejoin="round"/>
<path d="M147.387 245.42L153.167 251.284" stroke="#263238" stroke-linejoin="round"/>
<path d="M150.541 146.954C153.269 146.542 155.121 144.157 154.677 141.628C154.233 139.098 151.662 137.38 148.933 137.792C146.205 138.203 144.353 140.588 144.797 143.118C145.241 145.648 147.812 147.365 150.541 146.954Z" fill="white" stroke="#263238" stroke-linejoin="round"/>
<path d="M151.548 142.376C151.548 142.042 151.441 141.715 151.241 141.437C151.04 141.159 150.755 140.942 150.422 140.815C150.088 140.687 149.721 140.654 149.368 140.719C149.014 140.785 148.689 140.947 148.435 141.184C148.18 141.421 148.007 141.722 147.938 142.051C147.868 142.379 147.905 142.719 148.044 143.028C148.183 143.336 148.418 143.6 148.718 143.785C149.019 143.97 149.372 144.068 149.733 144.066C150.215 144.065 150.677 143.886 151.017 143.569C151.357 143.252 151.548 142.824 151.548 142.376Z" fill="white" stroke="#263238" stroke-linejoin="round"/>
</svg>
